<svg width="112" height="23" viewBox="0 0 112 23" fill="none" xmlns="http://www.w3.org/2000/svg">
<path d="M14.7057 9.47754C14.7057 10.5474 14.4602 11.5295 13.9691 12.424C13.478 13.3009 12.7238 14.0112 11.7066 14.5549C10.6894 15.0986 9.42662 15.3705 7.91831 15.3705H5.12969V22H0.631077V3.532H7.91831C9.39154 3.532 10.6368 3.78631 11.654 4.29492C12.6712 4.80354 13.4342 5.50507 13.9428 6.39954C14.4514 7.294 14.7057 8.32 14.7057 9.47754ZM7.57631 11.7926C8.43569 11.7926 9.07585 11.5909 9.49677 11.1875C9.91769 10.7842 10.1282 10.2142 10.1282 9.47754C10.1282 8.74092 9.91769 8.17092 9.49677 7.76754C9.07585 7.36415 8.43569 7.16246 7.57631 7.16246H5.12969V11.7926H7.57631ZM23.7298 22.2105C22.2917 22.2105 20.9938 21.9035 19.8363 21.2897C18.6963 20.6758 17.7931 19.7989 17.1266 18.6589C16.4777 17.5189 16.1532 16.186 16.1532 14.6602C16.1532 13.1518 16.4865 11.8277 17.1529 10.6877C17.8194 9.53015 18.7314 8.64446 19.8889 8.03061C21.0465 7.41677 22.3443 7.10984 23.7825 7.10984C25.2206 7.10984 26.5185 7.41677 27.676 8.03061C28.8335 8.64446 29.7455 9.53015 30.412 10.6877C31.0785 11.8277 31.4117 13.1518 31.4117 14.6602C31.4117 16.1685 31.0697 17.5014 30.3857 18.6589C29.7192 19.7989 28.7985 20.6758 27.6234 21.2897C26.4658 21.9035 25.168 22.2105 23.7298 22.2105ZM23.7298 18.3169C24.5892 18.3169 25.3171 18.0012 25.9134 17.3698C26.5272 16.7385 26.8342 15.8352 26.8342 14.6602C26.8342 13.4851 26.536 12.5818 25.9397 11.9505C25.3609 11.3191 24.6418 11.0034 23.7825 11.0034C22.9055 11.0034 22.1777 11.3191 21.5989 11.9505C21.0202 12.5643 20.7308 13.4675 20.7308 14.6602C20.7308 15.8352 21.0114 16.7385 21.5726 17.3698C22.1514 18.0012 22.8705 18.3169 23.7298 18.3169ZM38.2969 9.76692C38.8231 8.96015 39.4808 8.32877 40.27 7.87277C41.0592 7.39923 41.9361 7.16246 42.9008 7.16246V11.9242H41.6643C40.5418 11.9242 39.7 12.1697 39.1388 12.6608C38.5775 13.1343 38.2969 13.9762 38.2969 15.1863V22H33.7983V7.32031H38.2969V9.76692ZM53.2327 18.1854V22H50.9439C49.3128 22 48.0413 21.6054 47.1293 20.8162C46.2173 20.0094 45.7613 18.7028 45.7613 16.8963V11.056H43.9724V7.32031H45.7613V3.74246H50.2599V7.32031H53.2064V11.056H50.2599V16.9489C50.2599 17.3874 50.3652 17.7031 50.5756 17.896C50.7861 18.0889 51.1368 18.1854 51.6279 18.1854H53.2327ZM63.1047 11.056H60.6843V22H56.1857V11.056H54.5547V7.32031H56.1857V6.89938C56.1857 5.09292 56.7031 3.72492 57.7379 2.79538C58.7727 1.84831 60.2897 1.37477 62.2891 1.37477C62.6223 1.37477 62.8679 1.38354 63.0257 1.40107V5.21569C62.1663 5.16308 61.5613 5.28584 61.2105 5.584C60.8597 5.88215 60.6843 6.41708 60.6843 7.18877V7.32031H63.1047V11.056ZM71.9007 22.2105C70.4625 22.2105 69.1647 21.9035 68.0071 21.2897C66.8671 20.6758 65.9639 19.7989 65.2974 18.6589C64.6485 17.5189 64.3241 16.186 64.3241 14.6602C64.3241 13.1518 64.6573 11.8277 65.3237 10.6877C65.9902 9.53015 66.9022 8.64446 68.0597 8.03061C69.2173 7.41677 70.5151 7.10984 71.9533 7.10984C73.3914 7.10984 74.6893 7.41677 75.8468 8.03061C77.0044 8.64446 77.9164 9.53015 78.5828 10.6877C79.2493 11.8277 79.5825 13.1518 79.5825 14.6602C79.5825 16.1685 79.2405 17.5014 78.5565 18.6589C77.8901 19.7989 76.9693 20.6758 75.7942 21.2897C74.6367 21.9035 73.3388 22.2105 71.9007 22.2105ZM71.9007 18.3169C72.7601 18.3169 73.4879 18.0012 74.0842 17.3698C74.6981 16.7385 75.005 15.8352 75.005 14.6602C75.005 13.4851 74.7068 12.5818 74.1105 11.9505C73.5317 11.3191 72.8127 11.0034 71.9533 11.0034C71.0764 11.0034 70.3485 11.3191 69.7697 11.9505C69.191 12.5643 68.9016 13.4675 68.9016 14.6602C68.9016 15.8352 69.1822 16.7385 69.7434 17.3698C70.3222 18.0012 71.0413 18.3169 71.9007 18.3169ZM86.4677 2.53231V22H81.9691V2.53231H86.4677ZM91.9903 5.79446C91.2011 5.79446 90.5521 5.56646 90.0435 5.11046C89.5524 4.63692 89.3069 4.05815 89.3069 3.37415C89.3069 2.67261 89.5524 2.09384 90.0435 1.63784C90.5521 1.16431 91.2011 0.927536 91.9903 0.927536C92.762 0.927536 93.3934 1.16431 93.8844 1.63784C94.3931 2.09384 94.6474 2.67261 94.6474 3.37415C94.6474 4.05815 94.3931 4.63692 93.8844 5.11046C93.3934 5.56646 92.762 5.79446 91.9903 5.79446ZM94.2264 7.32031V22H89.7278V7.32031H94.2264ZM104.169 22.2105C102.731 22.2105 101.433 21.9035 100.275 21.2897C99.1352 20.6758 98.2319 19.7989 97.5655 18.6589C96.9165 17.5189 96.5921 16.186 96.5921 14.6602C96.5921 13.1518 96.9253 11.8277 97.5918 10.6877C98.2582 9.53015 99.1702 8.64446 100.328 8.03061C101.485 7.41677 102.783 7.10984 104.221 7.10984C105.659 7.10984 106.957 7.41677 108.115 8.03061C109.272 8.64446 110.184 9.53015 110.851 10.6877C111.517 11.8277 111.851 13.1518 111.851 14.6602C111.851 16.1685 111.509 17.5014 110.825 18.6589C110.158 19.7989 109.237 20.6758 108.062 21.2897C106.905 21.9035 105.607 22.2105 104.169 22.2105ZM104.169 18.3169C105.028 18.3169 105.756 18.0012 106.352 17.3698C106.966 16.7385 107.273 15.8352 107.273 14.6602C107.273 13.4851 106.975 12.5818 106.379 11.9505C105.8 11.3191 105.081 11.0034 104.221 11.0034C103.344 11.0034 102.617 11.3191 102.038 11.9505C101.459 12.5643 101.17 13.4675 101.17 14.6602C101.17 15.8352 101.45 16.7385 102.011 17.3698C102.59 18.0012 103.309 18.3169 104.169 18.3169Z" fill="white"/>
</svg>
